<svg xmlns="http://www.w3.org/2000/svg" xmlns:xlink="http://www.w3.org/1999/xlink" width="1024" height="1024" viewBox="0 0 1024 1024"><path fill="#FDE398" d="M747.811 956.402C747.195 956.429 746.578 956.441 745.961 956.438L377.912 956.56L280.638 956.449C254.987 956.46 227.084 957.981 202.175 953.151C170.281 946.965 137.994 928.318 115.143 905.467C93.6583 883.983 75.5843 848.491 70.4185 818.38C66.7409 796.944 67.6938 771.444 67.6539 749.354L67.6775 645.139L67.4284 243.21C67.4292 233.756 67.5201 224.936 68.8114 215.513C74.3803 177.602 91.9584 142.476 118.964 115.292C141.525 92.9188 175.82 74.8878 206.998 69.2754C230.065 65.1231 262.388 66.2015 286.365 66.2463L393.213 66.361L788.168 66.3991C877.894 66.9717 949.962 138.648 957.194 226.843C958.333 240.735 957.653 256.985 957.624 271.043L957.648 335.93C957.963 401.71 957.947 467.492 957.602 533.272C957.562 554.135 958.129 575.616 957.942 596.305C958.775 632.885 957.827 672.329 957.867 709.235L957.902 762.077C957.878 779.581 958.261 797.377 955.224 814.543C941.289 893.311 872.095 956.449 790.99 956.514C776.771 956.525 762.03 956.887 747.811 956.402Z" data-index="1" style="opacity: 1;"></path><defs><linearGradient id="gradient_0" gradientUnits="userSpaceOnUse" x1="777.77856" y1="794.16205" x2="129.11221" y2="106.62031"><stop offset="0" stop-color="#659F66"></stop><stop offset="1" stop-color="#B2DC97"></stop></linearGradient></defs><path fill="url(#gradient_0)" d="M747.811 956.402C747.195 956.429 746.578 956.441 745.961 956.438L377.912 956.56L280.638 956.449C254.987 956.46 227.084 957.981 202.175 953.151C170.281 946.965 137.994 928.318 115.143 905.467C93.6583 883.983 75.5843 848.491 70.4185 818.38C66.7409 796.944 67.6938 771.444 67.6539 749.354L67.6775 645.139L67.4284 243.21C67.4292 233.756 67.5201 224.936 68.8114 215.513C74.3803 177.602 91.9584 142.476 118.964 115.292C141.525 92.9188 175.82 74.8878 206.998 69.2754C230.065 65.1231 262.388 66.2015 286.365 66.2463L393.213 66.361L788.168 66.3991C877.894 66.9717 949.962 138.648 957.194 226.843C958.333 240.735 957.653 256.985 957.624 271.043L957.648 335.93C957.963 401.71 957.947 467.492 957.602 533.272C957.562 554.135 958.129 575.616 957.942 596.305C956.01 590.483 956.754 563.544 956.765 556.283L956.751 488.628C956.667 478.335 954.846 467.536 955.049 457.081C955.127 453.052 950.761 454.983 950.976 449.585C949.836 447.946 949.589 450.183 948.88 449.136C942.647 439.943 936.343 430.695 927.655 423.614C925.574 421.918 923.361 418.41 921.081 416.857C918.683 415.224 915.961 413.703 913.454 412.202L913.008 411.354C908.904 403.524 899.839 399.552 893.38 393.214C888.986 388.903 884.678 378.328 880.264 375.89L879.216 376.388L878.797 376.322C878.457 374.634 878.975 371.489 877.589 368.728C875.435 364.437 871.35 359.555 869.523 355.158C866.076 346.858 865.495 340.385 860.369 332.507C856.726 326.907 852.459 321.016 847.244 316.319C847.123 316.21 844.338 315.517 843.917 315.415C842.692 313.727 843.112 306.83 843.127 304.378C841.607 315.925 843.174 336.79 842.385 349.666C841.874 338.612 842.367 327.13 842.168 316.029C841.934 302.99 843.298 292.893 836.772 280.928C822.138 254.098 798.836 258.429 772.761 258.495L702.79 258.816L466.834 258.521C466.939 238.685 470.256 215.055 455.368 200.807C445.936 191.78 437.849 188.485 425.074 188.451L276.206 188.435L237.348 188.476C219.203 188.503 206.77 187.689 192.841 201.784C181.228 213.536 181.746 225.419 181.708 240.642L181.73 269.052L182.023 357.898C167.262 359.337 155.653 363.72 145.875 375.266C135.363 387.677 136.409 399.579 136.5 414.688L136.699 444.892L136.838 538.725L136.877 699.25L136.934 753.91C136.95 764.779 136.662 777.23 137.413 787.933C137.057 799.92 141.552 811.543 149.88 820.171C159.807 830.629 171.857 834.515 185.743 835.548C188.653 838.188 215.363 834.088 220.988 836.929C224.236 838.57 228.359 838.27 231.871 839.008C235.746 839.823 239.409 841.152 243.373 841.852C256.713 844.207 273.404 845.323 287.049 846.014C296.167 846.475 305.682 846.135 314.724 847.016C318.593 847.392 322.408 848.229 326.268 848.633C328.328 848.848 330.364 848.801 332.415 849.147C336.017 849.755 339.501 850.305 343.118 850.782C344.799 851.005 346.587 851.739 348.276 851.748C349.256 851.754 349.933 851.525 350.85 851.214C364.134 856.717 390.702 855.103 405.436 859.394C408.321 859.294 413.659 860.243 416.196 860.063C420.442 859.761 426.831 862.524 430.102 862.621C447 863.123 464.178 865.334 480.873 868.107C488.758 869.416 493.151 874.452 503.573 874.808C503.95 873.791 503.784 874.311 504.066 873.246L504.506 873.302C506.213 875.715 505.811 876.068 508.534 876.496C515.823 877.642 523.528 877.305 530.666 878.94C533.186 879.517 536.699 883.587 539.361 884.146C543.42 884.998 550.849 884.623 554.498 886.032C561.976 888.906 569.333 893.676 576.808 896.335C583.132 898.584 591.287 897.667 597.735 899.56C600.689 900.427 601.756 904.414 603.818 906.161C605.116 907.262 609.916 907.321 611.385 908.941C612.667 910.652 612.998 915.682 614.831 917.161C616.51 918.514 621.766 920.451 623.29 921.598C625.446 923.221 629.055 927.367 630.99 929.482C630.985 932.724 629.936 929.465 629.841 932.522C629.777 934.618 629.758 934.684 628.546 935.795C625.317 936.558 623.661 935.003 622.216 936.09L622.065 936.764C620.924 941.679 616.029 944.994 611.208 945.791C611.8 946.656 611.96 947.018 612.231 948.031L611.794 948.808L610.667 948.146C604.488 953.095 603.893 950.187 599.554 950.285C597.808 950.324 589.084 955.118 586.047 955.75L702.588 955.761C709.569 955.762 743.866 955.043 747.811 956.402Z" data-index="2" style="opacity: 1;"></path><path fill="#508F56" d="M842.385 349.666C843.174 336.79 841.607 315.925 843.127 304.378C843.112 306.83 842.692 313.727 843.917 315.415C844.338 315.517 847.123 316.21 847.244 316.319C852.459 321.016 856.726 326.907 860.369 332.507C865.495 340.385 866.076 346.858 869.523 355.158C871.35 359.555 875.435 364.437 877.589 368.728C878.975 371.489 878.457 374.634 878.797 376.322L879.216 376.388L880.264 375.89C884.678 378.328 888.986 388.903 893.38 393.214C899.839 399.552 908.904 403.524 913.008 411.354L913.454 412.202C915.961 413.703 918.683 415.224 921.081 416.857C923.361 418.41 925.574 421.918 927.655 423.614C936.343 430.695 942.647 439.943 948.88 449.136C949.589 450.183 949.836 447.946 950.976 449.585C950.761 454.983 955.127 453.052 955.049 457.081C954.846 467.536 956.667 478.335 956.751 488.628L956.765 556.283C956.754 563.544 956.01 590.483 957.942 596.305C958.775 632.885 957.827 672.329 957.867 709.235L957.902 762.077C957.878 779.581 958.261 797.377 955.224 814.543C941.289 893.311 872.095 956.449 790.99 956.514C776.771 956.525 762.03 956.887 747.811 956.402C743.866 955.043 709.569 955.762 702.588 955.761L586.047 955.75C589.084 955.118 597.808 950.324 599.554 950.285C603.893 950.187 604.488 953.095 610.667 948.146L611.794 948.808L612.231 948.031C611.96 947.018 611.8 946.656 611.208 945.791C616.029 944.994 620.924 941.679 622.065 936.764L622.216 936.09C623.661 935.003 625.317 936.558 628.546 935.795C629.758 934.684 629.777 934.618 629.841 932.522C629.936 929.465 630.985 932.724 630.99 929.482C629.055 927.367 625.446 923.221 623.29 921.598C621.766 920.451 616.51 918.514 614.831 917.161C612.998 915.682 612.667 910.652 611.385 908.941C609.916 907.321 605.116 907.262 603.818 906.161C601.756 904.414 600.689 900.427 597.735 899.56C591.287 897.667 583.132 898.584 576.808 896.335C569.333 893.676 561.976 888.906 554.498 886.032C550.849 884.623 543.42 884.998 539.361 884.146C536.699 883.587 533.186 879.517 530.666 878.94C523.528 877.305 515.823 877.642 508.534 876.496C505.811 876.068 506.213 875.715 504.506 873.302L504.066 873.246C503.784 874.311 503.95 873.791 503.573 874.808C493.151 874.452 488.758 869.416 480.873 868.107C464.178 865.334 447 863.123 430.102 862.621C426.831 862.524 420.442 859.761 416.196 860.063C413.659 860.243 408.321 859.294 405.436 859.394C390.702 855.103 364.134 856.717 350.85 851.214C349.933 851.525 349.256 851.754 348.276 851.748C346.587 851.739 344.799 851.005 343.118 850.782C339.501 850.305 336.017 849.755 332.415 849.147C330.364 848.801 328.328 848.848 326.268 848.633C322.408 848.229 318.593 847.392 314.724 847.016C305.682 846.135 296.167 846.475 287.049 846.014C273.404 845.323 256.713 844.207 243.373 841.852C239.409 841.152 235.746 839.823 231.871 839.008C228.359 838.27 224.236 838.57 220.988 836.929C215.363 834.088 188.653 838.188 185.743 835.548C198.76 834.863 218.805 835.501 232.246 835.516L338.814 835.982L684.942 835.965L790.781 835.948L822.882 835.992C830.094 836 839.087 836.228 846.133 835.333C855.683 834.024 864.616 829.863 871.763 823.394C879.617 816.257 886.528 804.772 887.061 794.006C888.482 785.029 887.964 761.458 887.955 750.987L887.776 669.925L887.902 402.211C884.904 376.322 867.79 361.01 842.287 358.014L842.385 349.666Z" data-index="3" style="opacity: 1;"></path><path fill="#EEC13F" d="M137.413 787.933C140.477 795.427 142.715 802.375 147.451 809.046C163.348 831.441 189.094 827.542 213.354 827.608L276.413 827.635L487.91 827.632L727.492 827.922L806.413 827.97C818.53 827.961 830.599 827.956 842.761 827.944C860.527 827.926 877.365 815.641 884.325 799.576C885.164 797.64 885.793 795.756 887.061 794.006C886.528 804.772 879.617 816.257 871.763 823.394C864.616 829.863 855.683 834.024 846.133 835.333C839.087 836.228 830.094 836 822.882 835.992L790.781 835.948L684.942 835.965L338.814 835.982L232.246 835.516C218.805 835.501 198.76 834.863 185.743 835.548C171.857 834.515 159.807 830.629 149.88 820.171C141.552 811.543 137.057 799.92 137.413 787.933Z" data-index="4" style="opacity: 1;"></path><defs><linearGradient id="gradient_1" gradientUnits="userSpaceOnUse" x1="534.32843" y1="425.62946" x2="468.10117" y2="139.49675"><stop offset="0" stop-color="#F4BB06"></stop><stop offset="1" stop-color="#FFD932"></stop></linearGradient></defs><path fill="url(#gradient_1)" d="M189.139 357.883C190.068 317.097 188.664 276.168 189.474 235.347C189.536 232.213 189.513 226.46 190.404 223.525C194.519 209.974 205.248 198.111 219.902 196.554C228.159 195.677 236.925 196.117 245.143 196.184L289.778 196.457L376.278 196.5C391.447 196.494 406.714 196.524 421.825 196.599C432.638 196.653 442.8 199.18 450.42 207.435C461.111 219.015 460.877 230.394 460.842 244.913L460.607 266.006L696.072 266.556L767.908 266.56C780.021 266.573 793.533 266.353 805.582 267.273C811.423 267.719 819.25 272.379 823.35 276.789C835.319 289.664 834.672 301.227 834.555 317.179L834.336 342.331C834.29 347.131 834.03 353.26 834.568 357.939C829.75 357.959 799.888 358.35 796.927 357.633C795.468 358.569 788.45 358.228 786.371 358.221L763.414 358.175L680.701 358.602C673.097 358.681 661.736 359.45 654.206 358.845C656.598 358.828 667.151 359.062 668.506 358.222C665.332 357.673 651.988 357.962 647.935 357.983C647.986 350.526 648.616 325.685 647.678 319.357C647.447 332.251 647.487 345.343 647.425 358.255C636.127 358.24 521.475 358.421 520.947 358.157C517.286 358.075 504.045 357.666 500.951 358.364C496.671 359.613 484.587 358.738 479.509 358.807C464.993 359.087 450.473 359.087 435.956 358.808C418.267 358.36 393.613 357.381 376.095 358.662L375.923 320.911C374.89 327.406 375.525 350.494 375.593 357.986C370.374 357.987 360.807 357.705 355.937 358.105L355.426 358.485C352.952 358.029 337.727 358.281 334.279 358.263L230.349 358.713C229.392 358.712 229.323 358.658 228.494 358.213C218.685 357.051 199.904 358.259 189.139 357.883Z" data-index="5"></path><path fill="#FDFDFD" d="M668.506 358.222L668.46 334.708C668.446 329.439 667.598 320.615 671.014 316.484C673.456 313.53 680.328 314.2 684.111 314.195C717.105 314.151 750.108 314.068 783.102 314.06C785.686 314.159 792.742 314.108 794.409 316.159C799.158 322.004 797.046 334.361 797.159 341.438C797.25 347.142 796.991 352.346 796.927 357.633C795.468 358.569 788.45 358.228 786.371 358.221L763.414 358.175L680.701 358.602C673.097 358.681 661.736 359.45 654.206 358.845C656.598 358.828 667.151 359.062 668.506 358.222Z" data-index="6"></path><path fill="#FDFDFD" d="M234.211 314.521L311.404 314.481C323.767 314.468 336.19 314.154 348.53 314.564C352.499 314.696 353.837 316.677 355.943 319.663C356.077 332.476 356.075 345.291 355.937 358.105L355.426 358.485C352.952 358.029 337.727 358.281 334.279 358.263L230.349 358.713C229.392 358.712 229.323 358.658 228.494 358.213C228.477 346.548 228.035 332.132 228.528 320.719C230.468 317.322 230.942 316.556 234.211 314.521Z" data-index="7"></path><path fill="#FDFDFD" d="M520.947 358.157C520.933 347.915 520.705 337.722 520.703 327.431C520.702 321.663 521.819 315.501 528.783 314.678C533.576 314.112 538.919 314.38 543.78 314.394L567.989 314.422C592.318 314.373 618.85 313.774 643.023 314.493C645.482 316.187 646.113 316.848 647.678 319.357C647.447 332.251 647.487 345.343 647.425 358.255C636.127 358.24 521.475 358.421 520.947 358.157Z" data-index="8"></path><path fill="#FDFDFD" d="M375.923 320.911C377.458 311.855 395.217 314.36 402.469 314.354L438.782 314.322L475.639 314.153C481.816 314.129 488.934 313.458 495.006 314.54C497.022 314.899 498.757 316.358 499.878 318.024C502.705 322.226 500.972 351.495 500.951 358.364C496.671 359.613 484.587 358.738 479.509 358.807C464.993 359.087 450.473 359.087 435.956 358.808C418.267 358.36 393.613 357.381 376.095 358.662L375.923 320.911Z" data-index="9"></path><path fill="#A1C52F" d="M278.893 438.579C296.826 405.945 336.927 393.084 370.631 411.121C384.879 418.746 392.258 427.539 400.304 441.212C413.872 436.057 428.945 436.588 442.116 442.685C457.015 449.515 467.121 461.669 472.728 476.921C477.56 490.063 476.64 501.668 476.492 515.42C497.193 531.676 507.866 547.774 511.064 574.739C513.752 598.377 506.975 622.117 492.214 640.773C478.834 657.538 458.808 670.205 437.24 672.456C430.042 673.169 422.778 672.796 415.691 671.348C413.046 676.056 410.734 680.034 407.005 683.986C393.925 697.848 372.159 703.57 355.013 693.83C353.425 692.932 351.877 691.967 350.373 690.937C350.621 706.062 351.685 721.293 352.321 736.425L355.769 819.033L329.942 819.415C330.527 813.006 330.653 806.495 331.041 800.067C333.477 759.705 333.072 718.914 335.622 678.601C322.226 689.976 313.409 694.319 294.81 692.862C282.794 691.987 271.645 686.28 263.909 677.043C262.801 675.721 261.565 674.223 260.623 672.787C252.337 673.083 244.886 673.115 236.735 671.135C202.961 662.933 178.381 631.935 177.305 597.338C176.641 577.655 183.909 558.529 197.478 544.254C203.371 538.09 209.306 534.073 216.719 530.032C198.702 501.529 209.288 464.79 237.295 447.564C250.893 439.2 263.254 437.137 278.893 438.579Z" data-index="10"></path><path fill="#A36835" d="M345.021 590.832C355.935 579.832 365.21 567.171 375.715 555.783C378.495 552.769 379.997 547.641 384.367 548.585C386.352 550.566 386.505 552.312 384.693 554.612C380.591 559.819 376.036 564.74 371.674 569.742C362.893 579.722 354.316 589.881 345.948 600.211C345.962 615.263 347.419 631.34 347.779 646.509C347.97 654.59 348.228 663.916 349.117 671.879C348.919 674.775 348.593 676.567 350.122 679.115C349.801 681.379 349.826 688.854 350.373 690.937C350.621 706.062 351.685 721.293 352.321 736.425L355.769 819.033L329.942 819.415C330.527 813.006 330.653 806.495 331.041 800.067C333.477 759.705 333.072 718.914 335.622 678.601C336.122 676.847 335.979 672.75 335.988 670.743C327.214 662.167 318.712 649.866 310.03 640.875C309.225 640.041 308.877 638.502 308.727 637.368C309.42 635.715 308.865 636.3 310.374 635.486C315.742 635.9 332.325 656.947 336.89 662.262C337.006 650.118 337.892 636.538 338.461 624.294C326.391 611.116 315.05 597.017 303.314 583.528C300.27 580.03 291.953 571.919 291.942 567.369C293.424 565.954 295.006 566.574 296.319 567.942C301.201 573.026 305.849 578.374 310.536 583.643L338.109 614.601C339.441 595.841 339.122 576.278 339.958 557.435C340.067 554.961 339.497 550.663 342.07 549.239L342.775 549.731C344.719 554.006 344.826 584.399 345.021 590.832Z" data-index="11"></path><path fill="#9A5930" d="M349.117 671.879C355.186 665.152 361.056 658.366 366.846 651.404C368.638 649.249 371.552 645.646 374.35 645.381C377.411 647.646 374.603 651.495 372.628 653.799C365.369 662.265 358.212 671.451 350.122 679.115C348.593 676.567 348.919 674.775 349.117 671.879Z" data-index="12"></path><path fill="#EEC13F" d="M237.163 619.392C235.898 608.659 240.777 598.126 249.782 592.151C258.787 586.175 270.387 585.771 279.786 591.106C289.184 596.442 294.784 606.609 294.269 617.404C295.521 621.56 292.835 628.586 290.85 632.277C278.281 655.641 243.479 652.071 237.468 625.247C236.897 622.7 236.729 621.997 237.163 619.392Z" data-index="13"></path><path fill="#617C04" d="M294.269 617.404C295.521 621.56 292.835 628.586 290.85 632.277C278.281 655.641 243.479 652.071 237.468 625.247C236.897 622.7 236.729 621.997 237.163 619.392C238.908 634.206 251.723 645.207 266.631 644.688C281.539 644.169 293.558 632.304 294.269 617.404Z" data-index="14"></path><path fill="#EEC13F" d="M298.092 497.519C295.267 482.583 304.572 468.033 319.316 464.332C334.059 460.631 349.133 469.061 353.698 483.56L354.469 483.928C359.504 499.259 351.147 516.538 335.75 521.537C327.943 523.998 319.472 523.184 312.276 519.283C305.658 515.713 296.805 505.469 298.092 497.519Z" data-index="15"></path><path fill="#78A606" d="M353.698 483.56L354.469 483.928C359.504 499.259 351.147 516.538 335.75 521.537C327.943 523.998 319.472 523.184 312.276 519.283C305.658 515.713 296.805 505.469 298.092 497.519C300.073 507.997 307.698 516.515 317.895 519.639C328.091 522.763 339.179 519.98 346.69 512.41C354.202 504.841 356.9 493.732 353.698 483.56Z" data-index="16"></path><path fill="#EEC13F" d="M398.738 595.48C395.083 583.877 399.154 571.231 408.892 563.94C418.63 556.649 431.911 556.304 442.014 563.079C452.118 569.854 456.841 582.272 453.793 594.049C454.119 598.317 450.981 604.915 448.218 607.939C434.688 622.745 409.061 622.706 400.74 602.28C399.787 599.941 398.905 598.019 398.738 595.48Z" data-index="17"></path><path fill="#617C04" d="M453.793 594.049C454.119 598.317 450.981 604.915 448.218 607.939C434.688 622.745 409.061 622.706 400.74 602.28C399.787 599.941 398.905 598.019 398.738 595.48C402.579 607.669 414.029 615.84 426.805 615.508C439.581 615.176 450.591 606.421 453.793 594.049Z" data-index="18"></path><path fill="#A1C52F" d="M596.418 581.208C595.863 576.846 596.012 572.131 596.056 567.71C596.167 556.424 595.917 545.062 596.089 533.783C596.331 517.888 594.235 508.198 613.724 507.969L701.824 507.801L736.442 507.569C742.45 507.54 748.787 507.406 754.783 507.756C757.446 507.91 759.955 509.013 761.949 510.794C763.667 512.412 764.118 515.902 764.335 518.179C764.682 521.814 764.623 525.718 764.601 529.382C764.5 546.225 764.821 563.071 764.783 579.911C764.781 580.69 764.706 581.381 764.586 582.145C763.935 587.161 760.092 592.695 754.926 592.785C732.143 593.183 707.281 593.95 684.57 593.209C682.91 593.257 679.153 593.249 677.671 593.424C675.782 592.913 666.503 593.048 664.118 593.051L627.074 593.154C615.699 593.202 597.287 596.732 596.418 581.208Z" data-index="19"></path><path fill="#78A606" d="M596.418 581.208C596.474 579.651 596.414 577.7 596.85 576.285C600.794 580.721 602.193 582.092 608.682 582.28C617.953 582.548 627.444 582.436 636.724 582.44L688.516 582.454L730.406 582.45C738.525 582.448 746.647 582.556 754.756 582.154C759.531 581.918 761.35 579.67 764.327 576.242L764.586 582.145C763.935 587.161 760.092 592.695 754.926 592.785C732.143 593.183 707.281 593.95 684.57 593.209C682.91 593.257 679.153 593.249 677.671 593.424C675.782 592.913 666.503 593.048 664.118 593.051L627.074 593.154C615.699 593.202 597.287 596.732 596.418 581.208Z" data-index="20"></path><path fill="#508F56" d="M640.03 472.295L639.942 439.335C639.932 433.265 639.623 426.239 640.497 420.277C640.875 417.694 641.567 416.005 643.416 414.195C646.852 410.831 650.079 409.967 654.726 409.964C666.936 409.958 679.032 409.913 691.256 409.998C698.143 410.205 705.317 409.596 712.131 410.574C714.491 410.913 717.507 413.107 719.083 414.84C720.624 416.534 721.519 419.351 721.732 421.599C722.279 427.352 722.042 433.282 722.035 439.082L721.993 471.351C722.267 489.781 714.509 490.024 698.069 489.877C681.936 489.733 664.964 490.827 649.056 488.635C641.902 487.492 639.875 479.627 639.998 473.547C640.007 473.129 640.017 472.712 640.03 472.295Z" data-index="21"></path><path fill="#125B2F" d="M721.993 471.351C722.267 489.781 714.509 490.024 698.069 489.877C681.936 489.733 664.964 490.827 649.056 488.635C641.902 487.492 639.875 479.627 639.998 473.547C640.007 473.129 640.017 472.712 640.03 472.295C643.25 475.768 645.157 480.568 650.832 480.688C670.907 481.111 691.46 481.623 711.488 480.45C716.28 480.17 719.422 474.842 721.993 471.351Z" data-index="22"></path><path fill="#508F56" d="M524.44 767.39C523.636 753.36 525.102 737.953 524.348 724.063C522.973 698.728 543.252 704.807 561.297 705.065L568.504 705.004C570.876 705 573.875 705.086 576.169 704.986C604.501 703.75 604.96 706.606 604.981 733.251L604.984 768.382C604.905 781.774 599.559 784.634 587.076 784.79L556.971 784.876C540.791 784.899 524.304 789.031 524.44 767.39Z" data-index="23"></path><path fill="#125B2F" d="M524.44 767.39C530.212 771.605 530.321 774.784 539.208 774.779C558.398 774.769 577.935 775.598 597.06 774.433C599.429 774.289 603.336 770.084 604.984 768.382C604.905 781.774 599.559 784.634 587.076 784.79L556.971 784.876C540.791 784.899 524.304 789.031 524.44 767.39Z" data-index="24"></path><path fill="#508F56" d="M677.838 660.794C678.679 672.695 678.03 692.442 677.959 704.721C680.133 704.694 682.96 704.741 685.069 704.525C719.196 704.32 723.596 701.82 722.112 739.953C721.757 749.05 722.322 759.943 722.151 769.283C721.869 774.761 719.777 782.606 713.258 783.911C703.817 785.417 693.717 784.622 684.154 784.711C675.121 784.795 666.071 784.645 657.066 784.415C648.833 784.204 643.825 780.686 642.27 772.602C641.214 761.456 642.715 747.574 642.255 736.091C641.966 728.875 641.075 712.645 646.64 707.907C652.839 702.628 669.281 704.507 677.637 704.519C677.799 690.097 677.366 675.106 677.838 660.794Z" data-index="25"></path><path fill="#125B2F" d="M642.27 772.602C642.375 771.149 642.219 770.893 642.865 769.674C643.729 769.911 646.842 773.232 648.847 774.385L650.162 774.443C667.847 775.187 685.674 774.849 703.374 774.889C712.582 774.91 715.283 775.592 722.151 769.283C721.869 774.761 719.777 782.606 713.258 783.911C703.817 785.417 693.717 784.622 684.154 784.711C675.121 784.795 666.071 784.645 657.066 784.415C648.833 784.204 643.825 780.686 642.27 772.602Z" data-index="26"></path><path fill="#508F56" d="M791.908 704.444C793.995 704.437 796.539 704.503 798.582 704.403C804.761 704.477 810.93 704.561 817.117 704.554C822.854 704.549 829.825 703.874 834.005 708.65C837.713 712.938 837.719 718.85 837.704 724.184C837.603 739.465 837.982 754.773 837.85 770.052C837.843 770.819 837.724 771.495 837.584 772.24C837.025 780.652 830.684 784.7 822.805 784.73C809.123 784.778 795.4 784.98 781.721 784.884C767.916 784.786 758.81 784.967 758.357 768.437L758.159 726.918C758.195 707.892 761.645 704.043 781.442 704.419C784.736 704.481 788.58 704.429 791.908 704.444Z" data-index="27"></path><path fill="#125B2F" d="M829.928 774.445L830.449 774.115C833.765 771.972 835.36 768.832 837.084 768.371C837.653 769.813 837.556 770.704 837.584 772.24C837.025 780.652 830.684 784.7 822.805 784.73C809.123 784.778 795.4 784.98 781.721 784.884C767.916 784.786 758.81 784.967 758.357 768.437L758.707 768.724C765.142 774.061 763.744 774.815 773.279 774.584C791.94 774.13 811.336 775.413 829.928 774.445Z" data-index="28"></path><path fill="#254F4D" d="M677.671 593.424C679.153 593.249 682.91 593.257 684.57 593.209L684.729 653.869L754.087 653.687C758.983 653.703 763.983 653.624 768.862 653.749C777.508 653.97 786.619 652.485 793.267 659.299C799.935 666.134 798.676 676.96 798.654 685.8L798.582 704.403C796.539 704.503 793.995 704.437 791.908 704.444C791.323 658.01 798.211 660.544 751.447 660.6L684.979 660.778L685.069 704.525C682.96 704.741 680.133 704.694 677.959 704.721C678.03 692.442 678.679 672.695 677.838 660.794C673.191 660.277 664.509 660.552 659.428 660.55L625.46 660.541L595.038 660.537C588.252 660.538 578.323 659.306 572.864 663.568C569.993 665.809 568.611 670.368 568.41 673.9C568.22 684.206 568.521 694.697 568.504 705.004L561.297 705.065C561.39 695.488 561.134 685.911 561.287 676.315C561.316 669.365 562.467 665.067 567.393 660.062C575.241 652.089 584.778 653.99 594.907 653.721C599.947 653.587 605.344 653.703 610.51 653.703L677.506 653.786L677.671 593.424Z" data-index="29"></path></svg>